<svg width="24" height="24" viewBox="0 0 24 24" fill="none" xmlns="http://www.w3.org/2000/svg">
<g clip-path="url(#clip0_50_254)">
<path fill-rule="evenodd" clip-rule="evenodd" d="M7.65621 0.125429C7.30755 -0.0699425 6.89847 -0.114703 6.52262 -0.0108142C6.31942 0.0453525 6.12594 0.144969 5.95697 0.287723C5.82364 0.399886 5.70902 0.53588 5.62041 0.69149C5.55113 0.812748 5.5002 0.941485 5.46754 1.07372L-0.0124285 21.5182C-0.0510385 21.6522 -0.0712141 21.7925 -0.0708258 21.9353C-0.0705541 22.1229 -0.0348153 22.306 0.0315271 22.4761C0.106058 22.6684 0.217223 22.8379 0.354615 22.9788C0.622847 23.2538 0.991055 23.4195 1.38185 23.4318C1.5431 23.4371 1.70157 23.416 1.85199 23.3717L22.7173 17.6812C22.8691 17.643 23.0159 17.5808 23.1517 17.4947C23.4795 17.2875 23.7115 16.9615 23.8046 16.5922C23.8967 16.2242 23.8471 15.8288 23.6577 15.492C23.5799 15.3532 23.4816 15.2299 23.3678 15.1249L7.98211 0.371561C7.88643 0.276135 7.77715 0.192968 7.65621 0.125429ZM19.3998 15.4764L7.71597 4.27273L3.5546 19.7978L19.3998 15.4764Z" fill="white"/>
</g>
<defs>
<clipPath id="clip0_50_254">
<rect width="24" height="24" fill="white"/>
</clipPath>
</defs>
</svg>
